<svg width="115" height="132" viewBox="0 0 115 132" fill="none" xmlns="http://www.w3.org/2000/svg">
<path fill-rule="evenodd" clip-rule="evenodd" d="M107.761 49.1804C111.385 53.7284 113.753 59.1757 114.621 64.9617C115.288 69.3454 115.073 73.8207 113.99 78.1177C112.907 82.4146 110.978 86.4437 108.319 89.9618C106.961 91.7241 105.602 93.4869 104.301 95.2493C102.463 97.644 101.448 100.585 101.411 103.622C101.409 110.234 99.1347 116.639 94.9812 121.729C90.8274 126.819 85.0555 130.275 78.6612 131.501C77.6517 131.828 76.599 131.996 75.5392 132H39.7241C38.7438 131.983 37.7702 131.825 36.8334 131.53C30.3631 130.389 24.4961 126.964 20.2662 121.859C16.0359 116.754 13.7137 110.296 13.7084 103.622C13.6709 100.585 12.6558 97.644 10.8177 95.2493C9.45921 93.4575 8.12949 91.7241 7.05981 90.373C2.04827 83.9798 -0.444631 75.9213 0.0652288 67.7641C0.575467 59.6066 4.0525 51.9338 9.82031 46.237C15.5877 40.5402 23.2341 37.2271 31.2719 36.9415C39.31 36.6558 47.165 39.4184 53.3102 44.6918C54.4805 45.7016 55.9662 46.2562 57.5018 46.2562C59.0371 46.2562 60.5228 45.7016 61.6931 44.6918C66.1025 40.9263 71.4187 38.4221 77.0957 37.4364C82.7726 36.4507 88.6055 37.019 93.9948 39.083C99.3841 41.147 104.136 44.6321 107.761 49.1804ZM58.3058 105.796C70.3816 105.796 80.1703 95.6377 80.1703 83.1075C80.1703 70.5768 70.3816 60.4193 58.3058 60.4193C46.2304 60.4193 36.4413 70.5768 36.4413 83.1075C36.4413 95.6377 46.2304 105.796 58.3058 105.796Z" fill="#014162"/>
<path d="M33.5094 22.9371C32.2281 18.9342 31.9965 14.6273 32.8398 10.4914C33.6835 6.35552 35.5693 2.55122 38.2893 -0.502049C38.4365 -0.673723 38.6182 -0.807263 38.82 -0.892706C39.0221 -0.978149 39.2393 -1.01329 39.4555 -0.995506C42.9181 -0.478926 46.2093 0.948278 49.0402 3.16038C51.8708 5.37249 54.1536 8.30164 55.6877 11.6897C57.2218 15.0779 57.9603 18.821 57.8377 22.5894C57.7151 26.3579 56.7351 30.036 54.9848 33.2997C53.897 35.2625 53.1672 37.4315 52.8349 39.6898C52.8084 39.8815 52.7338 40.0618 52.6191 40.211C52.5048 40.3603 52.3541 40.4726 52.1846 40.5363C52.015 40.5999 51.8322 40.6121 51.6565 40.5716C51.4809 40.5312 51.3189 40.4396 51.1883 40.3069C49.6288 38.755 47.8029 37.5481 45.8138 36.7539C42.9624 35.5406 40.3874 33.6782 38.2639 31.2939C36.1404 28.9094 34.5189 26.0591 33.5094 22.9371Z" fill="#014162"/>
</svg>
